<mxfile host="app.diagrams.net" modified="2021-10-11T17:25:57.117Z" agent="5.0 (Windows NT 10.0; Win64; x64) AppleWebKit/537.36 (KHTML, like Gecko) Chrome/94.0.4606.71 Safari/537.36" etag="8B6CHjMt7oR-aCCcfb12" version="15.5.0" type="github">
  <diagram name="Page-1" id="e7e014a7-5840-1c2e-5031-d8a46d1fe8dd">
    <mxGraphModel dx="1730" dy="912" grid="1" gridSize="10" guides="1" tooltips="1" connect="1" arrows="1" fold="1" page="1" pageScale="1" pageWidth="1169" pageHeight="826" background="none" math="0" shadow="0">
      <root>
        <mxCell id="0" />
        <mxCell id="1" parent="0" />
        <mxCell id="2" value="Admin" style="swimlane;whiteSpace=wrap" parent="1" vertex="1">
          <mxGeometry x="164.5" y="128" width="280" height="1112" as="geometry" />
        </mxCell>
        <mxCell id="5" value="" style="ellipse;shape=startState;fillColor=#000000;strokeColor=#ff0000;" parent="2" vertex="1">
          <mxGeometry x="100" y="40" width="30" height="30" as="geometry" />
        </mxCell>
        <mxCell id="6" value="" style="edgeStyle=elbowEdgeStyle;elbow=horizontal;verticalAlign=bottom;endArrow=open;endSize=8;strokeColor=#FF0000;endFill=1;rounded=0" parent="2" source="5" target="7" edge="1">
          <mxGeometry x="100" y="40" as="geometry">
            <mxPoint x="115" y="110" as="targetPoint" />
          </mxGeometry>
        </mxCell>
        <mxCell id="7" value="Login as admin" style="" parent="2" vertex="1">
          <mxGeometry x="60" y="112" width="110" height="50" as="geometry" />
        </mxCell>
        <mxCell id="vQt9zWExh9lSxkHfg90g-54" style="edgeStyle=orthogonalEdgeStyle;rounded=0;orthogonalLoop=1;jettySize=auto;html=1;exitX=0.5;exitY=0;exitDx=0;exitDy=0;entryX=0.5;entryY=1;entryDx=0;entryDy=0;strokeColor=#FF0000;endFill=1;endArrow=open;" edge="1" parent="2" source="vQt9zWExh9lSxkHfg90g-53" target="7">
          <mxGeometry relative="1" as="geometry" />
        </mxCell>
        <mxCell id="vQt9zWExh9lSxkHfg90g-53" value="" style="rhombus;fillColor=#ffffc0;strokeColor=#ff0000;" vertex="1" parent="2">
          <mxGeometry x="75" y="192" width="80" height="40" as="geometry" />
        </mxCell>
        <mxCell id="vQt9zWExh9lSxkHfg90g-65" value="Navigates to&#xa; Employee &#xa;management page" style="" vertex="1" parent="2">
          <mxGeometry x="60" y="322" width="110" height="50" as="geometry" />
        </mxCell>
        <mxCell id="vQt9zWExh9lSxkHfg90g-92" value="Logout" style="" vertex="1" parent="2">
          <mxGeometry x="80" y="832" width="110" height="50" as="geometry" />
        </mxCell>
        <mxCell id="vQt9zWExh9lSxkHfg90g-93" value="" style="ellipse;shape=endState;fillColor=#000000;strokeColor=#ff0000" vertex="1" parent="2">
          <mxGeometry x="125" y="1062" width="30" height="30" as="geometry" />
        </mxCell>
        <mxCell id="vQt9zWExh9lSxkHfg90g-94" value="" style="endArrow=open;strokeColor=#FF0000;endFill=1;rounded=0" edge="1" source="vQt9zWExh9lSxkHfg90g-92" target="vQt9zWExh9lSxkHfg90g-93" parent="2">
          <mxGeometry relative="1" as="geometry" />
        </mxCell>
        <mxCell id="vQt9zWExh9lSxkHfg90g-98" value="Navigates to feedback page" style="rounded=0;whiteSpace=wrap;html=1;fontSize=12;" vertex="1" parent="2">
          <mxGeometry x="80" y="732" width="120" height="60" as="geometry" />
        </mxCell>
        <mxCell id="3" value="System" style="swimlane;whiteSpace=wrap" parent="1" vertex="1">
          <mxGeometry x="444.5" y="128" width="280" height="1112" as="geometry" />
        </mxCell>
        <mxCell id="13" value="" style="ellipse;shape=startState;fillColor=#000000;strokeColor=#ff0000;" parent="3" vertex="1">
          <mxGeometry x="125.5" y="40" width="30" height="30" as="geometry" />
        </mxCell>
        <mxCell id="14" value="" style="edgeStyle=elbowEdgeStyle;elbow=horizontal;verticalAlign=bottom;endArrow=open;endSize=8;strokeColor=#FF0000;endFill=1;rounded=0" parent="3" source="13" target="15" edge="1">
          <mxGeometry x="105.5" y="20" as="geometry">
            <mxPoint x="120.5" y="90" as="targetPoint" />
          </mxGeometry>
        </mxCell>
        <mxCell id="15" value="Directs to&#xa; login page" style="" parent="3" vertex="1">
          <mxGeometry x="80.5" y="112" width="110" height="50" as="geometry" />
        </mxCell>
        <mxCell id="vQt9zWExh9lSxkHfg90g-50" style="edgeStyle=orthogonalEdgeStyle;rounded=0;orthogonalLoop=1;jettySize=auto;html=1;exitX=0.5;exitY=0;exitDx=0;exitDy=0;entryX=0.5;entryY=1;entryDx=0;entryDy=0;strokeColor=#FF0000;endFill=1;endArrow=open;" edge="1" parent="3" source="21" target="15">
          <mxGeometry relative="1" as="geometry" />
        </mxCell>
        <mxCell id="21" value="" style="rhombus;fillColor=#ffffc0;strokeColor=#ff0000;" parent="3" vertex="1">
          <mxGeometry x="95.5" y="192" width="80" height="40" as="geometry" />
        </mxCell>
        <mxCell id="34" value="" style="whiteSpace=wrap;strokeColor=#FF0000;fillColor=#FF0000" parent="3" vertex="1">
          <mxGeometry x="35.5" y="469" width="5.5" height="198" as="geometry" />
        </mxCell>
        <mxCell id="10" value="Displays Admin&#xa; page" style="" parent="3" vertex="1">
          <mxGeometry x="15.5" y="272" width="110" height="50" as="geometry" />
        </mxCell>
        <mxCell id="vQt9zWExh9lSxkHfg90g-59" value="Display customer&#xa;page" style="" vertex="1" parent="3">
          <mxGeometry x="155.5" y="272" width="110" height="50" as="geometry" />
        </mxCell>
        <mxCell id="vQt9zWExh9lSxkHfg90g-69" value="Display feedback&#xa;entering page" style="" vertex="1" parent="3">
          <mxGeometry x="155.5" y="802" width="110" height="50" as="geometry" />
        </mxCell>
        <mxCell id="vQt9zWExh9lSxkHfg90g-78" style="edgeStyle=orthogonalEdgeStyle;rounded=0;orthogonalLoop=1;jettySize=auto;html=1;entryX=0;entryY=0.75;entryDx=0;entryDy=0;fontSize=11;strokeColor=#FF0000;endFill=1;endArrow=open;" edge="1" parent="3" target="vQt9zWExh9lSxkHfg90g-71">
          <mxGeometry relative="1" as="geometry">
            <mxPoint x="38.5" y="496" as="sourcePoint" />
          </mxGeometry>
        </mxCell>
        <mxCell id="vQt9zWExh9lSxkHfg90g-84" style="edgeStyle=orthogonalEdgeStyle;rounded=0;orthogonalLoop=1;jettySize=auto;html=1;exitX=1;exitY=0.75;exitDx=0;exitDy=0;entryX=0.182;entryY=0.123;entryDx=0;entryDy=0;entryPerimeter=0;fontSize=11;strokeColor=#FF0000;endFill=1;endArrow=open;" edge="1" parent="3" source="vQt9zWExh9lSxkHfg90g-71" target="vQt9zWExh9lSxkHfg90g-77">
          <mxGeometry relative="1" as="geometry" />
        </mxCell>
        <mxCell id="vQt9zWExh9lSxkHfg90g-71" value="Display Employee&#xa;View page" style="" vertex="1" parent="3">
          <mxGeometry x="80.5" y="472" width="110" height="32" as="geometry" />
        </mxCell>
        <mxCell id="vQt9zWExh9lSxkHfg90g-85" style="edgeStyle=orthogonalEdgeStyle;rounded=0;orthogonalLoop=1;jettySize=auto;html=1;exitX=1;exitY=0.5;exitDx=0;exitDy=0;fontSize=11;strokeColor=#FF0000;endFill=1;endArrow=open;" edge="1" parent="3" source="vQt9zWExh9lSxkHfg90g-73">
          <mxGeometry relative="1" as="geometry">
            <mxPoint x="223.5" y="528" as="targetPoint" />
          </mxGeometry>
        </mxCell>
        <mxCell id="vQt9zWExh9lSxkHfg90g-73" value="Display Employee&#xa;Add page" style="" vertex="1" parent="3">
          <mxGeometry x="80.5" y="512" width="110" height="32" as="geometry" />
        </mxCell>
        <mxCell id="vQt9zWExh9lSxkHfg90g-87" style="edgeStyle=orthogonalEdgeStyle;rounded=0;orthogonalLoop=1;jettySize=auto;html=1;exitX=1;exitY=0.25;exitDx=0;exitDy=0;entryX=-0.303;entryY=0.46;entryDx=0;entryDy=0;fontSize=11;entryPerimeter=0;strokeColor=#FF0000;endFill=1;endArrow=open;" edge="1" parent="3" source="vQt9zWExh9lSxkHfg90g-74" target="vQt9zWExh9lSxkHfg90g-77">
          <mxGeometry relative="1" as="geometry">
            <Array as="points">
              <mxPoint x="191" y="563" />
            </Array>
          </mxGeometry>
        </mxCell>
        <mxCell id="vQt9zWExh9lSxkHfg90g-74" value="Display Employee&#xa;Edit page" style="" vertex="1" parent="3">
          <mxGeometry x="80.5" y="552" width="110" height="32" as="geometry" />
        </mxCell>
        <mxCell id="vQt9zWExh9lSxkHfg90g-88" style="edgeStyle=orthogonalEdgeStyle;rounded=0;orthogonalLoop=1;jettySize=auto;html=1;exitX=1;exitY=0.5;exitDx=0;exitDy=0;entryX=-0.303;entryY=0.689;entryDx=0;entryDy=0;entryPerimeter=0;fontSize=11;strokeColor=#FF0000;endFill=1;endArrow=open;" edge="1" parent="3" source="vQt9zWExh9lSxkHfg90g-75" target="vQt9zWExh9lSxkHfg90g-77">
          <mxGeometry relative="1" as="geometry" />
        </mxCell>
        <mxCell id="vQt9zWExh9lSxkHfg90g-75" value="Delete Employee" style="" vertex="1" parent="3">
          <mxGeometry x="80.5" y="592" width="110" height="32" as="geometry" />
        </mxCell>
        <mxCell id="vQt9zWExh9lSxkHfg90g-89" style="edgeStyle=orthogonalEdgeStyle;rounded=0;orthogonalLoop=1;jettySize=auto;html=1;exitX=1;exitY=0.5;exitDx=0;exitDy=0;entryX=0;entryY=0.879;entryDx=0;entryDy=0;entryPerimeter=0;fontSize=11;strokeColor=#FF0000;endFill=1;endArrow=open;" edge="1" parent="3" source="vQt9zWExh9lSxkHfg90g-76" target="vQt9zWExh9lSxkHfg90g-77">
          <mxGeometry relative="1" as="geometry" />
        </mxCell>
        <mxCell id="vQt9zWExh9lSxkHfg90g-76" value="Generate Report" style="" vertex="1" parent="3">
          <mxGeometry x="80.5" y="630" width="110" height="32" as="geometry" />
        </mxCell>
        <mxCell id="vQt9zWExh9lSxkHfg90g-77" value="" style="whiteSpace=wrap;strokeColor=#FF0000;fillColor=#FF0000" vertex="1" parent="3">
          <mxGeometry x="225.5" y="472" width="5.5" height="198" as="geometry" />
        </mxCell>
        <mxCell id="vQt9zWExh9lSxkHfg90g-80" style="edgeStyle=orthogonalEdgeStyle;rounded=0;orthogonalLoop=1;jettySize=auto;html=1;exitX=0.909;exitY=0.325;exitDx=0;exitDy=0;entryX=0;entryY=0.5;entryDx=0;entryDy=0;fontSize=11;exitPerimeter=0;strokeColor=#FF0000;endFill=1;endArrow=open;" edge="1" parent="3" source="34" target="vQt9zWExh9lSxkHfg90g-73">
          <mxGeometry relative="1" as="geometry">
            <mxPoint x="499.999" y="626.0379999999998" as="sourcePoint" />
            <mxPoint x="535" y="625.9999999999998" as="targetPoint" />
            <Array as="points">
              <mxPoint x="41" y="528" />
            </Array>
          </mxGeometry>
        </mxCell>
        <mxCell id="vQt9zWExh9lSxkHfg90g-81" style="edgeStyle=orthogonalEdgeStyle;rounded=0;orthogonalLoop=1;jettySize=auto;html=1;entryX=0;entryY=0.5;entryDx=0;entryDy=0;fontSize=11;strokeColor=#FF0000;endFill=1;endArrow=open;exitX=1;exitY=0.5;exitDx=0;exitDy=0;" edge="1" parent="3" source="34" target="vQt9zWExh9lSxkHfg90g-74">
          <mxGeometry relative="1" as="geometry">
            <mxPoint x="45.5" y="568" as="sourcePoint" />
            <mxPoint x="535" y="634" as="targetPoint" />
          </mxGeometry>
        </mxCell>
        <mxCell id="vQt9zWExh9lSxkHfg90g-82" style="edgeStyle=orthogonalEdgeStyle;rounded=0;orthogonalLoop=1;jettySize=auto;html=1;entryX=0;entryY=0.5;entryDx=0;entryDy=0;fontSize=11;strokeColor=#FF0000;endFill=1;endArrow=open;exitX=0.909;exitY=0.7;exitDx=0;exitDy=0;exitPerimeter=0;" edge="1" parent="3" source="34" target="vQt9zWExh9lSxkHfg90g-75">
          <mxGeometry relative="1" as="geometry">
            <mxPoint x="495.5" y="706" as="sourcePoint" />
            <mxPoint x="535" y="706.0000000000002" as="targetPoint" />
          </mxGeometry>
        </mxCell>
        <mxCell id="vQt9zWExh9lSxkHfg90g-83" style="edgeStyle=orthogonalEdgeStyle;rounded=0;orthogonalLoop=1;jettySize=auto;html=1;entryX=0;entryY=0.5;entryDx=0;entryDy=0;fontSize=11;strokeColor=#FF0000;endFill=1;endArrow=open;exitX=0.909;exitY=0.896;exitDx=0;exitDy=0;exitPerimeter=0;" edge="1" parent="3" source="34" target="vQt9zWExh9lSxkHfg90g-76">
          <mxGeometry relative="1" as="geometry">
            <mxPoint x="494.9994999999999" y="745.5999999999999" as="sourcePoint" />
            <mxPoint x="535" y="746.0000000000002" as="targetPoint" />
          </mxGeometry>
        </mxCell>
        <mxCell id="vQt9zWExh9lSxkHfg90g-99" value="Displays feedback&lt;br&gt;display page&amp;nbsp;" style="rounded=0;whiteSpace=wrap;html=1;fontSize=12;" vertex="1" parent="3">
          <mxGeometry x="20.5" y="732" width="120" height="60" as="geometry" />
        </mxCell>
        <mxCell id="4" value="Customer" style="swimlane;whiteSpace=wrap" parent="1" vertex="1">
          <mxGeometry x="724.5" y="128" width="280" height="1112" as="geometry" />
        </mxCell>
        <mxCell id="vQt9zWExh9lSxkHfg90g-46" value="" style="ellipse;shape=startState;fillColor=#000000;strokeColor=#ff0000;" vertex="1" parent="4">
          <mxGeometry x="125" y="42" width="30" height="30" as="geometry" />
        </mxCell>
        <mxCell id="vQt9zWExh9lSxkHfg90g-47" value="Login as customer" style="" vertex="1" parent="4">
          <mxGeometry x="85" y="112" width="110" height="50" as="geometry" />
        </mxCell>
        <mxCell id="vQt9zWExh9lSxkHfg90g-45" value="" style="edgeStyle=elbowEdgeStyle;elbow=horizontal;verticalAlign=bottom;endArrow=open;endSize=8;strokeColor=#FF0000;endFill=1;rounded=0" edge="1" source="vQt9zWExh9lSxkHfg90g-46" target="vQt9zWExh9lSxkHfg90g-47" parent="4">
          <mxGeometry x="125" y="42" as="geometry">
            <mxPoint x="140" y="112" as="targetPoint" />
          </mxGeometry>
        </mxCell>
        <mxCell id="vQt9zWExh9lSxkHfg90g-51" style="edgeStyle=orthogonalEdgeStyle;rounded=0;orthogonalLoop=1;jettySize=auto;html=1;exitX=0.5;exitY=0;exitDx=0;exitDy=0;entryX=0.5;entryY=1;entryDx=0;entryDy=0;strokeColor=#FF0000;endFill=1;endArrow=open;" edge="1" source="vQt9zWExh9lSxkHfg90g-52" parent="4">
          <mxGeometry relative="1" as="geometry">
            <mxPoint x="144.5" y="162" as="targetPoint" />
            <Array as="points">
              <mxPoint x="145" y="192" />
            </Array>
          </mxGeometry>
        </mxCell>
        <mxCell id="vQt9zWExh9lSxkHfg90g-52" value="" style="rhombus;fillColor=#ffffc0;strokeColor=#ff0000;" vertex="1" parent="4">
          <mxGeometry x="105" y="192" width="80" height="40" as="geometry" />
        </mxCell>
        <mxCell id="vQt9zWExh9lSxkHfg90g-66" value="Navigates to &#xa;feedback page" style="" vertex="1" parent="4">
          <mxGeometry x="95.5" y="322" width="110" height="50" as="geometry" />
        </mxCell>
        <mxCell id="vQt9zWExh9lSxkHfg90g-110" style="edgeStyle=orthogonalEdgeStyle;rounded=0;orthogonalLoop=1;jettySize=auto;html=1;entryX=0.5;entryY=0;entryDx=0;entryDy=0;fontSize=11;strokeColor=#FF0000;endFill=1;endArrow=open;" edge="1" parent="4" source="vQt9zWExh9lSxkHfg90g-105" target="vQt9zWExh9lSxkHfg90g-108">
          <mxGeometry relative="1" as="geometry" />
        </mxCell>
        <mxCell id="vQt9zWExh9lSxkHfg90g-105" value="Enter feedback &#xa;and submit" style="" vertex="1" parent="4">
          <mxGeometry x="95.5" y="872" width="110" height="50" as="geometry" />
        </mxCell>
        <mxCell id="vQt9zWExh9lSxkHfg90g-108" value="Logout" style="" vertex="1" parent="4">
          <mxGeometry x="95.5" y="952" width="110" height="50" as="geometry" />
        </mxCell>
        <mxCell id="vQt9zWExh9lSxkHfg90g-109" value="" style="ellipse;shape=endState;fillColor=#000000;strokeColor=#ff0000" vertex="1" parent="4">
          <mxGeometry x="135.5" y="1062" width="30" height="30" as="geometry" />
        </mxCell>
        <mxCell id="vQt9zWExh9lSxkHfg90g-107" value="" style="endArrow=open;strokeColor=#FF0000;endFill=1;rounded=0" edge="1" source="vQt9zWExh9lSxkHfg90g-108" target="vQt9zWExh9lSxkHfg90g-109" parent="4">
          <mxGeometry relative="1" as="geometry" />
        </mxCell>
        <mxCell id="vQt9zWExh9lSxkHfg90g-48" value="" style="endArrow=open;strokeColor=#FF0000;endFill=1;rounded=0;exitX=1;exitY=0.5;exitDx=0;exitDy=0;entryX=0;entryY=0.5;entryDx=0;entryDy=0;" edge="1" parent="1" source="15" target="vQt9zWExh9lSxkHfg90g-47">
          <mxGeometry relative="1" as="geometry">
            <mxPoint x="670" y="260" as="sourcePoint" />
            <mxPoint x="1049" y="511" as="targetPoint" />
          </mxGeometry>
        </mxCell>
        <mxCell id="vQt9zWExh9lSxkHfg90g-49" value="" style="endArrow=open;strokeColor=#FF0000;endFill=1;rounded=0;exitX=0;exitY=0.5;exitDx=0;exitDy=0;entryX=1;entryY=0.5;entryDx=0;entryDy=0;" edge="1" parent="1" source="15" target="7">
          <mxGeometry relative="1" as="geometry">
            <mxPoint x="650" y="275" as="sourcePoint" />
            <mxPoint x="819.5" y="275" as="targetPoint" />
          </mxGeometry>
        </mxCell>
        <mxCell id="vQt9zWExh9lSxkHfg90g-55" style="edgeStyle=orthogonalEdgeStyle;rounded=0;orthogonalLoop=1;jettySize=auto;html=1;exitX=1;exitY=0.5;exitDx=0;exitDy=0;entryX=0;entryY=0.5;entryDx=0;entryDy=0;strokeColor=#FF0000;endFill=1;endArrow=open;" edge="1" parent="1" source="vQt9zWExh9lSxkHfg90g-53" target="21">
          <mxGeometry relative="1" as="geometry" />
        </mxCell>
        <mxCell id="vQt9zWExh9lSxkHfg90g-57" value="[Invalid user]" style="edgeLabel;html=1;align=center;verticalAlign=middle;resizable=0;points=[];" vertex="1" connectable="0" parent="vQt9zWExh9lSxkHfg90g-55">
          <mxGeometry x="-0.2106" relative="1" as="geometry">
            <mxPoint x="-7" as="offset" />
          </mxGeometry>
        </mxCell>
        <mxCell id="vQt9zWExh9lSxkHfg90g-56" style="edgeStyle=orthogonalEdgeStyle;rounded=0;orthogonalLoop=1;jettySize=auto;html=1;exitX=0;exitY=0.5;exitDx=0;exitDy=0;entryX=1;entryY=0.5;entryDx=0;entryDy=0;strokeColor=#FF0000;endFill=1;endArrow=open;" edge="1" parent="1" source="vQt9zWExh9lSxkHfg90g-52" target="21">
          <mxGeometry relative="1" as="geometry" />
        </mxCell>
        <mxCell id="vQt9zWExh9lSxkHfg90g-58" value="[Invalid user]" style="edgeLabel;html=1;align=center;verticalAlign=middle;resizable=0;points=[];fontSize=12;" vertex="1" connectable="0" parent="vQt9zWExh9lSxkHfg90g-56">
          <mxGeometry x="-0.3652" y="1" relative="1" as="geometry">
            <mxPoint x="8" y="-1" as="offset" />
          </mxGeometry>
        </mxCell>
        <mxCell id="vQt9zWExh9lSxkHfg90g-60" style="edgeStyle=orthogonalEdgeStyle;rounded=0;orthogonalLoop=1;jettySize=auto;html=1;exitX=0.5;exitY=1;exitDx=0;exitDy=0;entryX=0;entryY=0.5;entryDx=0;entryDy=0;fontSize=11;strokeColor=#FF0000;endFill=1;endArrow=open;" edge="1" parent="1" source="vQt9zWExh9lSxkHfg90g-53" target="10">
          <mxGeometry relative="1" as="geometry" />
        </mxCell>
        <mxCell id="vQt9zWExh9lSxkHfg90g-63" value="[Valid user]" style="edgeLabel;html=1;align=center;verticalAlign=middle;resizable=0;points=[];fontSize=12;" vertex="1" connectable="0" parent="vQt9zWExh9lSxkHfg90g-60">
          <mxGeometry x="0.0721" y="-1" relative="1" as="geometry">
            <mxPoint as="offset" />
          </mxGeometry>
        </mxCell>
        <mxCell id="vQt9zWExh9lSxkHfg90g-61" style="edgeStyle=orthogonalEdgeStyle;rounded=0;orthogonalLoop=1;jettySize=auto;html=1;exitX=0.5;exitY=1;exitDx=0;exitDy=0;entryX=1;entryY=0.5;entryDx=0;entryDy=0;fontSize=11;strokeColor=#FF0000;endFill=1;endArrow=open;" edge="1" parent="1" source="vQt9zWExh9lSxkHfg90g-52" target="vQt9zWExh9lSxkHfg90g-59">
          <mxGeometry relative="1" as="geometry" />
        </mxCell>
        <mxCell id="vQt9zWExh9lSxkHfg90g-62" value="[Valid user]" style="edgeLabel;html=1;align=center;verticalAlign=middle;resizable=0;points=[];fontSize=12;" vertex="1" connectable="0" parent="vQt9zWExh9lSxkHfg90g-61">
          <mxGeometry x="0.1444" y="-1" relative="1" as="geometry">
            <mxPoint as="offset" />
          </mxGeometry>
        </mxCell>
        <mxCell id="vQt9zWExh9lSxkHfg90g-67" style="edgeStyle=orthogonalEdgeStyle;rounded=0;orthogonalLoop=1;jettySize=auto;html=1;exitX=0.25;exitY=1;exitDx=0;exitDy=0;entryX=1;entryY=0.5;entryDx=0;entryDy=0;fontSize=11;strokeColor=#FF0000;endFill=1;endArrow=open;" edge="1" parent="1" source="10" target="vQt9zWExh9lSxkHfg90g-65">
          <mxGeometry relative="1" as="geometry" />
        </mxCell>
        <mxCell id="vQt9zWExh9lSxkHfg90g-68" style="edgeStyle=orthogonalEdgeStyle;rounded=0;orthogonalLoop=1;jettySize=auto;html=1;exitX=0.75;exitY=1;exitDx=0;exitDy=0;fontSize=11;strokeColor=#FF0000;endFill=1;endArrow=open;" edge="1" parent="1" source="vQt9zWExh9lSxkHfg90g-59" target="vQt9zWExh9lSxkHfg90g-66">
          <mxGeometry relative="1" as="geometry" />
        </mxCell>
        <mxCell id="vQt9zWExh9lSxkHfg90g-70" style="edgeStyle=orthogonalEdgeStyle;rounded=0;orthogonalLoop=1;jettySize=auto;html=1;exitX=0.5;exitY=1;exitDx=0;exitDy=0;entryX=1;entryY=0.75;entryDx=0;entryDy=0;fontSize=11;strokeColor=#FF0000;endFill=1;endArrow=open;" edge="1" parent="1" source="vQt9zWExh9lSxkHfg90g-66" target="vQt9zWExh9lSxkHfg90g-69">
          <mxGeometry relative="1" as="geometry">
            <mxPoint x="875" y="810" as="sourcePoint" />
            <Array as="points">
              <mxPoint x="875" y="968" />
            </Array>
          </mxGeometry>
        </mxCell>
        <mxCell id="vQt9zWExh9lSxkHfg90g-72" style="edgeStyle=orthogonalEdgeStyle;rounded=0;orthogonalLoop=1;jettySize=auto;html=1;exitX=0.5;exitY=1;exitDx=0;exitDy=0;entryX=0;entryY=0.5;entryDx=0;entryDy=0;fontSize=11;strokeColor=#FF0000;endFill=1;endArrow=open;" edge="1" parent="1" source="vQt9zWExh9lSxkHfg90g-65" target="34">
          <mxGeometry relative="1" as="geometry" />
        </mxCell>
        <mxCell id="vQt9zWExh9lSxkHfg90g-101" style="edgeStyle=orthogonalEdgeStyle;rounded=0;orthogonalLoop=1;jettySize=auto;html=1;exitX=1;exitY=0.5;exitDx=0;exitDy=0;fontSize=11;strokeColor=#FF0000;endFill=1;endArrow=open;" edge="1" parent="1" source="vQt9zWExh9lSxkHfg90g-77" target="vQt9zWExh9lSxkHfg90g-98">
          <mxGeometry relative="1" as="geometry" />
        </mxCell>
        <mxCell id="vQt9zWExh9lSxkHfg90g-102" style="edgeStyle=orthogonalEdgeStyle;rounded=0;orthogonalLoop=1;jettySize=auto;html=1;exitX=1;exitY=0.5;exitDx=0;exitDy=0;entryX=0;entryY=0.5;entryDx=0;entryDy=0;fontSize=11;strokeColor=#FF0000;endFill=1;endArrow=open;" edge="1" parent="1" source="vQt9zWExh9lSxkHfg90g-98" target="vQt9zWExh9lSxkHfg90g-99">
          <mxGeometry relative="1" as="geometry" />
        </mxCell>
        <mxCell id="vQt9zWExh9lSxkHfg90g-103" style="edgeStyle=orthogonalEdgeStyle;rounded=0;orthogonalLoop=1;jettySize=auto;html=1;exitX=0.5;exitY=1;exitDx=0;exitDy=0;entryX=1;entryY=0.5;entryDx=0;entryDy=0;fontSize=11;strokeColor=#FF0000;endFill=1;endArrow=open;" edge="1" parent="1" source="vQt9zWExh9lSxkHfg90g-99" target="vQt9zWExh9lSxkHfg90g-92">
          <mxGeometry relative="1" as="geometry">
            <mxPoint x="364.5" y="969.9999999999998" as="targetPoint" />
            <Array as="points">
              <mxPoint x="525" y="985" />
            </Array>
          </mxGeometry>
        </mxCell>
        <mxCell id="vQt9zWExh9lSxkHfg90g-106" style="edgeStyle=orthogonalEdgeStyle;rounded=0;orthogonalLoop=1;jettySize=auto;html=1;exitX=0.5;exitY=1;exitDx=0;exitDy=0;entryX=0;entryY=0.5;entryDx=0;entryDy=0;fontSize=11;strokeColor=#FF0000;endFill=1;endArrow=open;" edge="1" parent="1" source="vQt9zWExh9lSxkHfg90g-69" target="vQt9zWExh9lSxkHfg90g-105">
          <mxGeometry relative="1" as="geometry" />
        </mxCell>
      </root>
    </mxGraphModel>
  </diagram>
</mxfile>
